<svg width="92" height="120" viewBox="0 0 92 120" fill="none" xmlns="http://www.w3.org/2000/svg">
<path d="M87.6495 0.162833L91.2434 2.25936L5.73996 52.2035L1.82248 49.0199L86.4054 0.162833C86.8293 -0.132074 87.4114 0.0399555 87.6495 0.162833Z" fill="#FFD984"/>
<path d="M1.83999 49.0465C1.18871 49.3396 -0.0859332 50.2914 0.025723 51.7539L4.26183 54.1026L4.33046 119.351L4.7483 119.611V54.3724C4.74422 53.7761 5.06102 52.9051 5.55052 52.3853L5.3883 52.5995L91.38 2.46244L91.2335 2.25722L5.7642 52.1906L1.83999 49.0465Z" fill="#FFEFD6"/>
<path d="M3.48255e-05 116.915V51.7579L4.32757 54.1812V119.367L3.48255e-05 116.915Z" fill="#F7B636"/>
<path d="M52.3019 59.3496L71.6458 64.847L91.8116 70.4074L91.3745 2.45666L52.3019 59.3496Z" fill="#FED362"/>
<path d="M48.7927 57.3277L4.71146 119.611L91.8161 70.4092L48.7927 57.3277Z" fill="#FFD984"/>
<path d="M5.8002 52.2917L31.6625 59.1658L50.3763 63.7157L91.3781 2.46381L5.8002 52.2917Z" fill="#FFEAB9"/>
<path d="M45.1331 62.4534L4.74901 119.568L4.56185 53.6753C4.55933 52.7885 5.39637 52.1391 6.25474 52.3619L45.1331 62.4534Z" fill="#FED362"/>
<path d="M44.8957 62.376L45.1389 62.4635L4.73662 119.566L4.68772 119.253L44.8957 62.376Z" fill="#F7B637"/>
<path d="M53.7049 58.8076H53.6549L91.8125 70.4097L91.8624 70.3819L53.7049 58.8076Z" fill="#F7B637"/>
<path d="M61.1595 15.5236C50.9691 27.5256 44.6737 46.7474 36.8312 44.073C29.1279 41.4461 25.87 35.3618 28.9862 23.8526C31.9293 12.9831 42.1246 0.271407 52.2576 0.00312852C59.4253 -0.186643 67.2984 8.29339 61.1595 15.5236Z" fill="#FFDB89"/>
<path d="M63.8174 16.9373C61.805 32.5528 48.2217 44.6488 39.8695 44.6488C32.4688 44.6488 28.5278 36.7756 31.644 25.2664C34.5871 14.3968 44.5827 1.86078 54.7096 1.41855C63.0251 1.05543 64.7609 9.61571 63.8174 16.9373Z" fill="#FACA60"/>
<path d="M48.2681 13.0543C52.9168 10.3569 56.0318 12.5942 56.0458 17.5661C56.0583 22.0007 53.8737 25.5468 51.8091 26.7447C50.4267 27.5468 49.6375 26.8917 49.5619 25.7389L49.5613 25.5459C48.7025 27.4656 47.2283 29.4028 45.6561 30.315C43.3657 31.644 41.8831 30.623 41.8754 27.8684C41.8642 23.9138 44.7375 19.0589 47.6378 17.3759C49.237 16.448 50.3241 16.8154 50.7973 17.7635L51.1131 15.814L52.7846 14.8441L51.4059 23.3625C51.3793 23.5451 51.3529 23.8165 51.3534 23.9887C51.356 24.9278 51.8771 25.1637 52.5186 24.7915C53.4763 24.2357 55.194 21.9901 55.1829 18.0668C55.1698 13.4026 52.3819 11.634 48.1941 14.064C43.4235 16.8322 39.3759 24.0512 39.3908 29.3675C39.4037 33.9116 42.368 35.6928 46.452 33.3231C48.2003 32.3086 49.6984 30.8175 51.0238 29.0764L51.4686 29.5603C49.9449 31.5837 48.1758 33.2634 46.3552 34.3198C41.8783 36.9176 38.5468 34.9471 38.5326 29.9177C38.5153 23.7824 43.1497 16.0243 48.2681 13.0543ZM49.8006 23.7505L50.5032 19.3869C50.2342 18.6599 49.4177 17.937 47.963 18.7811C45.5054 20.2071 43.6427 23.9687 43.6504 26.7234C43.6556 28.5442 44.5674 29.3529 46.1666 28.4249C47.8381 27.455 49.0902 25.3594 49.8006 23.7505Z" fill="white"/>
</svg>
