<svg width="18" height="14" viewBox="0 0 18 14" fill="none" xmlns="http://www.w3.org/2000/svg">
<path d="M9.74108 0.403202C9.65851 0.278852 9.54802 0.177179 9.41913 0.106939C9.29024 0.0366999 9.14682 0 9.00122 0C8.85562 0 8.71219 0.0366999 8.58331 0.106939C8.45442 0.177179 8.34393 0.278852 8.26136 0.403202L0.160727 12.5357C0.0669616 12.6756 0.0119762 12.8395 0.00174332 13.0096C-0.00848955 13.1797 0.0264229 13.3494 0.102686 13.5003C0.178949 13.6513 0.293646 13.7777 0.434317 13.8657C0.574987 13.9538 0.73625 14.0003 0.900585 14L17.1019 14C17.2658 13.9993 17.4265 13.9523 17.5666 13.864C17.7067 13.7757 17.8209 13.6494 17.897 13.4988C17.9731 13.3483 18.0081 13.179 17.9984 13.0093C17.9887 12.8396 17.9345 12.6759 17.8417 12.5357L9.74108 0.403202Z" fill="#0589E5"/>
</svg>
