<svg width="50" height="56" viewBox="0 0 50 56" fill="none" xmlns="http://www.w3.org/2000/svg">
<path fill-rule="evenodd" clip-rule="evenodd" d="M24.5816 55.3303C11.956 54.2106 0.956481 32.1905 0 13.6227C8.99092 12.3163 17.8862 6.90465 24.5816 3.05176e-05C30.8943 6.81134 40.1722 12.3163 49.1631 13.6227C48.2066 32.1905 37.3028 54.2106 24.5816 55.3303Z" fill="#0589E5"/>
<path fill-rule="evenodd" clip-rule="evenodd" d="M15.1125 32.0036V30.1374L24.199 28.9245V26.4053L15.1125 28.2714V26.4053L24.199 23.5127V21.2734L15.1125 24.4458V22.7663L24.199 18.5675V15.7684L15.1125 20.9003V19.5006L24.486 12.7827L33.9552 19.6872V34.1497H35.103V36.7621H14.0604V34.1497H24.199V31.4438L15.1125 32.0036Z" fill="white"/>
</svg>
