<svg width="150" height="118" viewBox="0 0 150 118" fill="none" xmlns="http://www.w3.org/2000/svg">
<path opacity="0.4" d="M11.1386 111.563L10.5011 110.803C-2.26618 95.6124 -3.3796 81.8496 7.09533 68.7286C16.0158 57.5595 31.761 48.8093 45.6548 41.0895C48.5846 39.4608 51.3311 37.9239 53.9771 36.4088L56.9549 34.6622L59.9372 36.4088C76.0447 45.7048 92.947 50.1104 113.137 50.2764L117.237 50.3069L117.294 52.6735C117.578 64.3317 125.21 74.0949 141.309 83.3909L144.291 85.1113L141.309 86.8316C138.689 88.3511 136.021 89.9492 133.201 91.6346C119.831 99.66 104.671 108.751 85.3276 113.903C62.6007 119.951 38.7603 119.309 12.4441 111.938L11.1386 111.563ZM56.9855 41.5305C55.2128 42.5304 53.3876 43.5434 51.497 44.587C23.8447 59.9566 -7.44906 77.3566 17.4393 107.899C70.3597 122.308 100.505 104.21 127.123 88.2507C128.956 87.1678 130.703 86.1155 132.45 85.0938C117.682 75.9725 110.159 66.3184 109.02 55.0575C89.4932 54.4026 72.7874 50.058 56.9899 41.5305H56.9855Z" fill="#D6D8E5"/>
<path d="M16.0204 108.633L15.3829 107.878C2.61566 92.6828 1.50223 78.92 11.9772 65.7991C20.8977 54.6299 36.6472 45.8797 50.5366 38.1599C53.4664 36.5313 56.2129 34.9943 58.8589 33.4792L61.8411 31.7588L64.819 33.4792C80.9266 42.7752 97.8288 47.1809 118.041 47.3468L122.141 47.3773L122.198 49.7439C122.481 61.4021 130.114 71.1653 146.213 80.4613L149.195 82.1817L146.213 83.9064C143.593 85.4215 140.925 87.0196 138.109 88.7094C124.734 96.7304 109.579 105.821 90.2313 110.978C67.5262 117.03 43.6639 116.383 17.3478 109.013L16.0204 108.633ZM61.8673 38.6009C60.0946 39.6008 58.2694 40.6138 56.3832 41.6574C28.7266 57.027 -2.56286 74.427 22.3255 104.97C75.2415 119.379 105.387 101.28 132.004 85.3211C133.825 84.2339 135.58 83.1772 137.31 82.1555C122.547 73.0341 115.019 63.3801 113.88 52.1192C94.375 51.473 77.6692 47.1284 61.8717 38.6009H61.8673Z" fill="#7D90E2"/>
<path d="M16.02 108.633V101.8L111.399 74.1954L148.989 75.1735L149.181 82.1815L99.6797 104.812L68.8007 112.545L26.0845 109.161L16.02 108.633Z" fill="#7D90E2"/>
<path d="M4.88184 83.841V77.4224L8.30507 82.1293L4.88184 83.841Z" fill="#7D90E2"/>
<path d="M143.217 75.3489C126.363 65.6162 118.263 55.3815 117.962 42.946C96.4228 42.7714 78.6953 38.095 61.8411 28.3667C34.1889 44.3302 -11.1472 63.8959 19.1773 99.9752C81.6775 117.489 115.565 91.3123 143.217 75.3489Z" fill="#525BFF"/>
<path d="M16.0204 101.8L15.3829 101.04C2.61566 85.8496 1.50223 72.0868 11.9772 58.9658C20.8977 47.7966 36.6472 39.0464 50.5366 31.3223C53.4664 29.698 56.2129 28.1611 58.8589 26.6416L61.8411 24.9212L64.819 26.6416C80.9266 35.9419 97.8288 40.3476 118.019 40.5092L122.119 40.5441L122.176 42.9107C122.46 54.5689 130.092 64.3059 146.191 73.6281L149.173 75.3484L146.191 77.0688C143.571 78.5883 140.903 80.182 138.087 81.8718C124.713 89.8928 109.557 98.988 90.2095 104.14C67.5043 110.188 43.6421 109.546 17.326 102.171L16.0204 101.8ZM61.8673 31.7677C60.0946 32.7676 58.2694 33.7806 56.3832 34.8241C28.7266 50.1894 -2.56286 67.5938 22.3255 98.1365C75.2415 112.524 105.387 94.447 132.004 78.4879C133.825 77.3963 135.58 76.344 137.31 75.3223C122.547 66.2009 115.019 56.5468 113.88 45.286C94.375 44.6354 77.6693 40.2908 61.8717 31.7677H61.8673Z" fill="#97A6FF"/>
<path opacity="0.1" d="M72.1499 79.0556C81.9357 79.0556 89.8686 74.4753 89.8686 68.8252C89.8686 63.1751 81.9357 58.5948 72.1499 58.5948C62.3641 58.5948 54.4312 63.1751 54.4312 68.8252C54.4312 74.4753 62.3641 79.0556 72.1499 79.0556Z" fill="black"/>
<path d="M84.9432 42.889L66.6262 32.3137C65.2683 31.5277 64.168 29.4275 64.168 27.6198V15.1757C64.168 13.368 65.2683 12.5558 66.6262 13.32L84.9432 23.8953C86.3011 24.6813 87.4014 26.7815 87.4014 28.5892V41.0333C87.4014 42.841 86.3011 43.6706 84.9432 42.889Z" fill="#E8A30A"/>
<path d="M78.4682 47.8489L86.6508 42.9542L81.6906 31.7021L73.9883 35.5096L78.4682 47.8489Z" fill="#E8A30A"/>
<path d="M57.1255 17.9265L65.1989 13.1104L67.2205 28.1045L57.1255 17.9265Z" fill="#E8A30A"/>
<path d="M76.9182 47.6917L58.5794 37.1163C57.2215 36.3347 56.1255 34.2345 56.1255 32.4268V19.9739C56.1255 18.1663 57.2215 17.3541 58.5794 18.1182L76.9182 28.698C78.2717 29.4795 79.3721 31.5798 79.3721 33.3874V45.8316C79.3721 47.6393 78.2717 48.4733 76.9182 47.6917Z" fill="#F9CB07"/>
<path d="M66.1333 17.7559V8.30271C66.1333 4.46466 68.8274 2.91023 72.1502 4.80961C75.473 6.72644 78.167 11.3941 78.167 15.2278V24.681" stroke="#CC8B09" stroke-width="6" stroke-miterlimit="10"/>
<path d="M66.0502 19.3628C67.5236 19.3628 68.718 18.6727 68.718 17.8215C68.718 16.9702 67.5236 16.2801 66.0502 16.2801C64.5768 16.2801 63.3823 16.9702 63.3823 17.8215C63.3823 18.6727 64.5768 19.3628 66.0502 19.3628Z" fill="#CC8B09"/>
<path d="M78.1669 25.7985C79.6403 25.7985 80.8347 25.1084 80.8347 24.2571C80.8347 23.4059 79.6403 22.7158 78.1669 22.7158C76.6935 22.7158 75.499 23.4059 75.499 24.2571C75.499 25.1084 76.6935 25.7985 78.1669 25.7985Z" fill="#CC8B09"/>
</svg>
